<?xml version="1.0" encoding="utf-8"?>
<!-- Generator: Adobe Illustrator 22.0.1, SVG Export Plug-In . SVG Version: 6.00 Build 0)  -->
<!DOCTYPE svg PUBLIC "-//W3C//DTD SVG 1.1//EN" "http://www.w3.org/Graphics/SVG/1.1/DTD/svg11.dtd">
<svg version="1.1" id="Layer_1" xmlns="http://www.w3.org/2000/svg" xmlns:xlink="http://www.w3.org/1999/xlink" x="0px" y="0px"
	 viewBox="0 0 393.5 149.2" preserveAspectRatio="xMinYMin meet" style="enable-background:new 0 0 393.5 149.2;" xml:space="preserve">
<style type="text/css">
	.st0{fill:#ff7006;}
</style>
<g>
	<path class="st0" d="M158.6,49.6c0,0-34.7,2-40.6,44.8c-1.4,6.2,17.4-6.1,35.8-39.4c4.8-1,6.3,7.7,6.3,7.7
		c-1.7,7.1-6.7,28.5,3.3,44c0,0-17.9,2.9-15.4-29.3c0.5-7-22.3,39.3-37.4,26.6c-11-9.3,6.2-36.7,10.7-42.4
		C125.9,55.9,152.2,28.3,158.6,49.6"/>
	<path class="st0" d="M172.9,40.8c0,0,14.8-3.7,8.5,29.6c5.6-4.3,8.9-31.1,28.6-26.5c3.5,10.2-2.8,20.8-5.9,20.7
		c-3.1-0.1,0.2-7-2.5-9.1c0,0-12.3,3.1-20.3,29.7c-3.3,10.2-6.8,17.7-6.8,17.7s-11.3-4.1-3.6-28.7C177.9,52.3,172.9,40.8,172.9,40.8
		"/>
	<path class="st0" d="M222.5,92.1c-3.8-2.8-5.2-7.3-5-12.3c9.4-2.1,37-6.4,35.8-33.1c-17.2-16.5-37.6,11.1-37.6,11.1
		s-20.9,30.5-3.2,42.2c18,8.2,38.1-13.3,38.2-21.3C249.9,78,231.8,96.3,222.5,92.1 M242.8,48.8C246.4,64,228,72,218.1,75.2
		C220.9,61.9,232.9,47.1,242.8,48.8"/>
	<path class="st0" d="M259.3,38c0,0,5.8,3.7,0.5,26.8c-5.3,23.1-6.4,28.7-0.3,32.5c6.3-3.1,13-39.7,33.5-43.9c0,0,1.6,0.3-1.4,9.4
		c-3,9.1-16.5,40.3,8.2,45.8c-6.5-10.4-7.5-20-1.5-33.6c6-13.7,8.6-22.8,4.9-30.9c-22.9-5.5-27.7,18.5-37.4,29
		C265.8,73.1,276,38.7,259.3,38"/>
</g>
<g>
	<path class="st0" d="M331,45.3c4.9-0.2,10.7,0.1,17.7,1.1c0,0,5.3-10.4-14.1-8.9c4.9-12.6,7.9-29.2-6.1-29.2c0,0,6.8,3.7-5.5,31
		c-19.3,4.5-12.7,10.9-12.7,10.9s1.6-1.4,9-3.3c-0.9,1.7-1.8,3.6-2.8,5.5c-20.9,39.4-3.6,46.8,1.2,46.8c4.8,0,15.3,0.4,20.1-26
		c0,0-11.5,23.2-17.7,16.2c-6.2-7,4.1-31.7,10.3-43C330.6,46,330.8,45.6,331,45.3"/>
	<path class="st0" d="M47.2,0c0,0-20.2,31.9-35.3,72.8c-15.1,40.8-16.4,66-0.8,74.9C12.8,77.4,42.9,23.1,42.9,23.1s7.4,43.9,0,105.7
		c9.3,0.1,16.3-60,63.9-106.9c0,0-27.3,62.8-22.5,95.5c3.8,29.8,19,23.1,19,23.1s-16.4-25.9,1.4-74.8c20.4-51.9,18.7-61,17.5-63.9
		C88.5,4.7,56.4,84.9,56.4,84.9S61.9,26.7,47.2,0"/>
	<path class="st0" d="M128.2,129c0,0,57.4-10.3,81.9-11.9c26.1-1.7,56.6-2,82.1,3.1c0,0-8.1-15.9-82.6-8.6
		C144.9,118,129.2,126.1,128.2,129"/>
	<path class="st0" d="M360.5,86.1c-3.8-2.8-5.2-7.3-5-12.3c9.4-2.1,37-6.4,35.8-33.1c-17.2-16.5-37.6,11.1-37.6,11.1
		s-20.9,30.5-3.2,42.2c18,8.2,38.1-13.3,38.2-21.3C388,72,369.9,90.3,360.5,86.1 M380.9,42.8c3.6,15.2-14.8,23.2-24.7,26.4
		C359,55.9,371,41.1,380.9,42.8"/>
</g>
</svg>
