<?xml version="1.0" encoding="UTF-8" standalone="no"?>
<svg width="241px" height="74px" viewBox="0 0 241 74" version="1.1" xmlns="http://www.w3.org/2000/svg" xmlns:xlink="http://www.w3.org/1999/xlink" xmlns:sketch="http://www.bohemiancoding.com/sketch/ns">
    <!-- Generator: Sketch 3.4.3 (16044) - http://www.bohemiancoding.com/sketch -->
    <title>Group</title>
    <desc>Created with Sketch.</desc>
    <defs></defs>
    <g id="Welcome" stroke="none" stroke-width="1" fill="none" fill-rule="evenodd" sketch:type="MSPage">
        <g id="Desktop-HD" sketch:type="MSArtboardGroup" transform="translate(-91.000000, -21.000000)">
            <g id="Group" sketch:type="MSLayerGroup" transform="translate(91.000000, 21.000000)">
                <path d="M52.5583466,30.3824499 C52.2069666,30.8469357 51.472699,31.440399 52.6132237,32.9939809 C53.0038315,33.5253595 53.5557319,34.0180657 54.3452938,34.55906 C54.4218713,34.6046306 54.5061691,34.6813482 54.5877544,34.7536758 C54.8777891,34.9882182 55.2406453,35.2860996 55.6792445,35.29906 C56.1990116,35.3233086 56.6417839,34.9482917 57.0353129,34.1756815 C57.4328064,33.3848849 56.4412635,32.2445742 55.312215,31.0499131 C55.1824298,30.9318058 55.0755969,30.8070092 54.9825354,30.7131504 C54.7953691,30.504529 53.9782644,30.0245742 53.3437354,30.0003256 C52.8817666,29.9905007 52.6960609,30.2049753 52.5583466,30.3824499" id="Fill-1" fill="#BA9459" sketch:type="MSShapeGroup"></path>
                <path d="M28.1590262,54.5254003 C27.5190721,54.1702421 26.9342037,53.8121574 26.4359284,53.4684963 C24.1584262,51.9036263 21.529544,48.9837619 20.4365933,46.8250105 C19.8513076,45.6633777 19.1808894,44.0330783 18.6116704,42.3599257 C18.5227821,42.0959088 18.2442236,41.9537619 17.9894522,42.0135472 L9.39587212,44.1722986 C9.13421497,44.2345924 8.96707991,44.4931743 9.00547298,44.7714059 C9.31136562,46.8875133 10.2023353,49.946598 10.9474531,51.4516828 C11.7121847,53.0056828 13.7242738,55.681389 15.2566583,57.1724681 C16.7827829,58.6581122 19.3332098,60.5041404 20.7166124,61.1091009 C22.067047,61.7111348 24.3704228,62.6146037 26.0757847,63.2220726 C26.1239847,63.2477845 26.1807396,63.250711 26.2283137,63.250711 C26.4841284,63.2676432 26.70155,63.0778353 26.7555925,62.8361856 L28.4248565,55.115937 C28.4722219,54.8859935 28.3639284,54.6389088 28.1590262,54.5254003" id="Fill-2" fill="#7A4489" sketch:type="MSShapeGroup"></path>
                <path d="M45.5890946,10.3994931 C45.8186185,10.4166344 46.0291544,10.27177 46.1101137,10.0531146 C46.7953466,8.09608635 46.7083362,5.34638014 44.1458072,4.53572477 C41.0966877,3.58271347 35.0825379,4.12935189 33.6160894,4.44061178 C31.86837,4.80956658 26.604763,6.94992251 24.9478098,7.95268522 C23.3373873,8.93663438 20.6429864,11.4390468 19.1731994,13.316431 C18.8284964,13.7581316 18.4712739,14.2171824 18.1084176,14.6785327 C17.9199994,14.9256174 17.9667388,15.3687813 18.3310557,15.5178265 C20.258221,16.281866 21.3837223,16.8485722 22.9146462,17.703544 C23.1374929,17.8300129 23.431492,17.7800525 23.585899,17.5373575 C24.8589215,15.6555835 27.6935405,13.6801598 29.2862271,12.8067926 C30.5968081,12.0853971 32.8415509,11.3284649 34.3831163,11.0797078 C35.787802,10.8439112 38.4033301,10.557109 40.2065527,10.4080638 C41.4320011,10.3043801 43.8515994,10.2874479 45.5890946,10.3994931" id="Fill-3" fill="#AB5335" sketch:type="MSShapeGroup"></path>
                <path d="M41.3388298,45.6059757 C42.9066861,45.6059757 45.7227345,44.8985859 47.3650817,44.1629757 C49.0036731,43.4160774 51.2185778,41.5926254 51.8602012,41.0587384 C52.8112644,40.2518458 53.5038003,39.5730944 54.4337891,37.8687949 C54.5195475,37.7040718 54.5195475,37.5138458 54.44297,37.3574842 C53.8313934,36.1226876 52.2259787,34.8318684 51.2329752,34.7948684 C50.7063224,34.7789814 50.339293,35.0135237 50.0484237,35.3573938 C48.4692999,37.187117 46.9667536,38.4342469 45.0988471,39.6013147 C44.2237354,40.1466989 43.5385025,40.3827045 42.4897874,40.3454955 C40.9298601,40.3001339 38.9104679,38.5362582 38.0514229,37.8035746 C37.4504878,37.2922638 34.2742956,34.1088006 33.645609,31.4703034 C33.364338,30.2944559 33.2097224,28.344326 33.684628,26.6914503 C33.7845752,26.367439 33.5350203,25.9754898 33.1552627,26.0012017 C32.4172393,26.0536706 31.1527718,26.1786763 30.2839198,26.0948514 C30.0266445,26.0720661 29.7989986,26.235326 29.7366099,26.4924446 C29.1951423,28.7264503 29.0540895,31.0214955 29.0094367,32.0370096 C28.946422,33.2028232 29.2064099,35.2223542 29.5680142,36.4607045 C29.9196029,37.6614277 31.0676393,39.6583825 32.070867,40.8200153 C33.0834843,41.9958627 35.178828,43.7425972 36.4702125,44.4328458 C37.6040601,45.0405237 39.8028982,45.6059757 41.3388298,45.6059757" id="Fill-4" fill="#F0A92F" sketch:type="MSShapeGroup"></path>
                <path d="M25.96702,25.3547413 C24.6923282,25.046408 23.5831022,24.5265266 22.4832659,24.0647583 C22.0870243,23.9002442 21.6603187,24.0536792 21.4499914,24.4738487 L20.7240702,25.9268826 C19.9516182,27.4662498 19.4232962,30.427295 19.1518321,32.113199 C18.8711871,33.8285775 18.9915827,36.7791707 19.4141152,38.6734871 C19.8408208,40.5907978 20.9982468,43.7834588 21.9344953,45.6267696 C22.8459135,47.4330803 25.1728676,49.9894249 27.1250719,51.3414927 C29.1039845,52.7048487 32.2056858,54.0853458 34.040833,54.4147922 C34.8481308,54.5540125 35.942542,54.6533063 37.1366918,54.6959504 C38.6173291,54.7498826 40.0691715,54.6959504 41.1287369,54.5623741 C43.1479204,54.3098543 45.9915117,53.6933967 47.3404858,53.2105153 C48.684452,52.7274249 50.9575723,51.6226509 52.3063377,50.787747 C53.5601637,50.0038487 58.348239,45.7603458 59.1087975,44.4053515 C59.3132823,44.0361877 59.1532416,43.6444475 58.8894979,43.3260803 C58.3770338,42.7041877 57.1006728,41.1817526 56.6086572,40.48586 C56.2981741,40.0596283 55.7567065,39.8637583 55.2250459,40.491504 C54.4212953,41.4342724 50.4918477,44.9335944 48.4945732,45.8255662 C46.5843091,46.6748939 42.7299784,47.60073 40.8543516,47.6546622 C39.0037637,47.7058769 36.2352892,47.0555549 34.6864208,46.2375831 C33.1200252,45.4081142 30.9370451,43.6699504 29.7122226,42.2695944 C28.495955,40.8834532 27.1511542,38.5428374 26.7056693,37.0574023 C26.2731213,35.5953797 25.9697325,33.2564362 26.0419282,31.8533628 C26.0552823,31.6031425 26.0569516,31.3163402 26.0667585,31.0025718 C26.0915888,29.8463741 26.1276866,28.186182 26.5694156,26.3512329 C26.6637291,25.9580295 26.4544451,25.4594701 25.96702,25.3547413 L155.69594,28.974465" id="Fill-5" fill="#E05693" sketch:type="MSShapeGroup"></path>
                <path d="M65.108032,48.9923458 L66.0956104,46.9529559 C66.176361,46.8110181 66.145897,46.4815718 65.9574788,46.3536396 C65.4627506,46.0271198 63.1704338,45.0329277 62.3113887,45.0015718 C60.9319506,44.9562102 60.4292935,45.8935435 58.875,47.7057074 C57.5685922,49.2310689 55.2589567,51.329826 53.7461861,52.2730124 C52.8418623,52.8326113 51.5575723,53.5086452 50.3066675,54.0881028 C50.0535654,54.2101819 49.9258667,54.5226961 50.0450104,54.7839955 L52.5754061,60.2854983 C52.7477576,60.6605153 53.1197948,60.6492271 53.2906857,60.5497243 C53.5229221,60.4276452 53.7307455,60.3227074 53.9016364,60.2119164 C55.2460199,59.3738768 57.0492424,57.8798712 59.6774987,55.6502554 C61.0652831,54.4744079 63.7759593,51.7531311 65.108032,48.9923458" id="Fill-6" fill="#33488B" sketch:type="MSShapeGroup"></path>
                <path d="M8.1591881,36.243334 C8.14645996,36.5353622 8.12580282,36.8393057 8.09575606,37.1716786 C8.02877684,38.0122266 7.94593961,38.9750628 8.04755606,40.1254074 C8.06362273,40.3869159 8.28709546,40.66243 8.64556992,40.6340007 C9.54425996,40.5288538 17.4163007,39.520656 17.3524513,35.7878368 C17.3382626,35.17556 17.3040426,34.567882 17.270866,33.9612492 C17.2072253,32.8380798 17.1460885,31.7786673 17.2554253,30.957769 C17.5003898,29.0644978 18.1651742,26.8959216 19.3138366,24.0640628 L19.7430461,23.0088312 C19.8636504,22.7048877 19.7472193,22.3953001 19.4632357,22.2690402 C18.8721076,22.0033509 16.6684703,21.2817464 15.9135457,21.0292266 C15.6364478,20.9339046 15.34224,21.078769 15.2387457,21.3615995 L14.500305,23.3767408 C14.2386478,24.0924922 13.6128825,25.1420798 13.0960366,25.1420798 C12.7621838,25.1420798 12.25744,24.5170515 11.5331881,24.5170515 C10.499079,24.5170515 9.89522273,25.6788933 9.39319156,28.6485091 C9.29199243,29.2789724 9.14968767,30.0145826 9.00028853,30.7800854 C8.63430238,32.6687577 8.21740368,34.8049329 8.1591881,36.243334" id="Fill-7" fill="#E77A2B" sketch:type="MSShapeGroup"></path>
                <path d="M62.8842868,37.8388482 C63.4966981,38.5232437 65.9037769,39.9008143 67.0426323,40.0883228 C67.2114366,40.1138256 67.402776,40.1395375 67.6189457,40.17382 C67.8488868,40.2104019 68.1783578,40.0544584 68.214247,39.6792324 C68.239286,39.4066448 68.760305,32.911368 68.6177916,31.36782 C68.4569163,29.639481 66.2021578,26.0065827 65.5158816,24.9329556 C65.1183881,24.3123171 64.6768678,24.0000121 64.1948678,24.0000121 C62.8110479,23.9931137 61.9090193,26.9483058 61.3817405,29.6152324 C61.1505474,30.7628595 60.1128912,34.7323115 62.8842868,37.8388482" id="Fill-8" fill="#2D9DCC" sketch:type="MSShapeGroup"></path>
                <path d="M37.9440791,57.3383825 C37.624415,57.3243769 36.9316704,57.3413091 36.5256219,57.3214503 C35.5879128,57.2900944 34.8415431,57.1993712 34.2389388,57.0432187 C32.2954981,56.5350435 30.980118,57.4265972 30.708654,59.3551961 C30.3038574,62.2010605 29.8650496,64.4281678 29.5474721,66.0471791 C29.0062133,68.7935407 28.7551977,70.0406706 29.3192003,70.7704277 C29.7390202,71.3302356 30.5022912,71.3358797 31.0700496,71.2533091 C34.5673665,70.8387836 49.2852678,64.6301 50.5044565,63.3058345 C50.6496825,63.1582526 50.6930834,62.9370887 50.6112895,62.7410096 L48.1441172,56.3387554 C48.0456306,56.0831 47.7756271,55.9495238 47.5210643,56.0176706 C45.8810124,56.4721226 43.7078392,56.912569 41.986202,57.1255803 C40.9001371,57.2675181 39.5693163,57.4067384 37.9440791,57.3383825" id="Fill-9" fill="#AB5335" sketch:type="MSShapeGroup"></path>
                <path d="M53.6606947,11.8087458 C53.2573588,11.6467401 52.769725,11.4450169 52.2267969,11.3384068 C51.3904956,11.1722203 50.9318653,10.636661 51.0082341,9.90544068 C51.1396887,8.67858757 52.8070748,6.98139548 56.6015207,7.07922599 C56.6015207,7.07922599 57.0513874,7 57.7800211,7 C60.9017536,7 66.6711475,8.19988701 70.8814488,15.6189096 C70.9438376,15.732209 71.310867,16.2849096 71.3980861,16.4212034 C74.1256636,20.853678 75.6701501,25.4692712 75.8629501,28.6688305 C75.9023865,29.8120678 76.1534021,37.6251299 72.4415848,39.2443503 C71.9842064,39.3948588 71.7114904,39.0397006 71.7114904,38.7445367 C71.7114904,38.4688136 71.6895813,36.1062486 71.7029354,35.0200791 C71.721506,32.6922147 71.7461276,29.9951864 71.6313657,28.9359831 C71.5243242,27.9432542 70.3875553,26.6666497 69.2929354,25.4349887 C68.3744229,24.4010791 67.4289934,23.3416667 67.0673891,22.4584746 C66.8009328,21.8094068 66.6194003,21.2483446 66.4593597,20.7556384 C66.1113181,19.680339 65.8582159,18.9094011 65.0429891,18.0956102 C63.9135233,16.9736949 63.1250047,16.4126328 62.1484852,15.8262768 C61.2176618,15.2696045 59.8229917,14.5197797 59.0401068,14.1504068 C58.2812177,13.7994294 55.1094073,12.386322 53.6606947,11.8087458" id="Fill-10" fill="#17A196" sketch:type="MSShapeGroup"></path>
                <path d="M24.5882538,67.0335919 C22.8693291,66.4058462 20.8374174,65.5876654 19.5268364,65.0169874 C17.6207455,64.1701682 14.5956217,62.0201965 12.6400789,60.1171004 C10.6964295,58.2140044 8.37385721,55.1097671 7.35894466,53.0419479 C6.57355592,51.4511569 5.73391609,48.8523772 5.22979834,46.4293998 C5.15739401,46.0888744 4.81164769,45.9155806 4.51660527,46.0405863 C3.77086154,46.3357501 2.71839055,46.9522078 1.96367453,48.1336993 C0.894093578,49.823784 0.71256111,52.1669083 1.43055332,55.0955524 C2.20884769,58.2765072 4.90011869,63.0143885 7.5177334,64.7157614 C13.1014217,68.3484507 17.504523,70.2404676 20.5991299,70.3451965 C23.8097507,70.4532699 24.6902875,68.524671 24.9262797,67.683914 C24.99931,67.414253 24.8538754,67.1243151 24.5882538,67.0335919" id="Fill-11" fill="#2D9DCC" sketch:type="MSShapeGroup"></path>
                <path d="M4.55927283,39.1170255 C4.90814902,39.4009013 5.44815595,39.1308222 5.40141655,38.6481498 L5.37950746,38.3782798 C5.30856374,37.5063758 5.22134469,36.7310481 5.2893672,35.8695962 C5.4638053,33.5107939 6.17950227,29.7359578 6.92086417,27.2789069 C7.5105317,25.3193702 8.6256001,22.2613306 9.64134729,19.8485962 C9.77968755,19.4850764 9.54995508,19.1811329 9.29893949,19.1144493 C8.89560356,18.9950877 8.46138625,18.8502233 8.0302988,18.7055679 C7.24491006,18.4354888 6.41778971,18.1656188 5.86004685,18.0719691 C5.72671439,18.0521103 5.46943906,18.008212 5.15478279,18.0025679 C4.02281309,17.9653589 2.58828928,18.315082 2.18912651,20.2006188 L1.82773084,21.9007374 C1.28188149,24.4740142 0.84975075,26.4981442 0.31642088,28.5515397 C-1.06280856,33.8147374 2.38338711,37.4382289 4.55927283,39.1170255" id="Fill-12" fill="#BA9459" sketch:type="MSShapeGroup"></path>
                <path d="M14.0388138,13.8827508 C14.1721463,13.9350107 14.4350554,13.9663666 14.6320285,13.7280615 C15.3629575,12.837553 16.1525194,11.8759711 16.8719723,11.0097112 C18.7814017,8.71048525 21.9546727,5.94112932 24.0980078,4.72410107 C26.2208943,3.50979034 29.6852433,2.23297678 31.9875757,1.81280729 C32.841613,1.65916322 34.1190173,1.54565474 35.6760233,1.49172254 C36.3182727,1.47332706 36.3572917,0.490214067 35.7229714,0.418095422 C34.0167749,0.189406157 32.3612822,0.0560389253 30.8003117,0.0131858179 C26.9856259,-0.0863170069 23.8373939,0.378168869 21.4390788,1.37821407 C18.5297601,2.58834401 14.3422026,5.92984119 11.8810814,8.45336661 C11.1150978,9.23580164 10.8450943,10.0809485 11.0846337,10.9584966 C11.4445688,12.2752367 12.8686597,13.3940163 14.0388138,13.8827508" id="Fill-13" fill="#79BB44" sketch:type="MSShapeGroup"></path>
                <path d="M46.1412868,73.8592803 C47.7204106,73.8592803 48.9907206,73.7911334 50.2539362,73.6178396 C53.5991414,73.1606701 52.1128704,69.8739413 52.0285725,69.7290769 L51.3911223,67.3913876 C51.3162141,67.1104384 51.0071916,66.9085062 50.6789725,67.0422916 C49.3145578,67.6357548 46.9337699,68.7123085 46.2049275,69.0645401 C44.6938262,69.7976418 41.3903526,71.2546475 39.3029379,72.2314893 C38.8499414,72.4587153 38.9167119,73.1320317 39.4247942,73.2595458 C40.1590617,73.4416192 43.3494427,73.8592803 46.1412868,73.8592803" id="Fill-14" fill="#E77A2B" sketch:type="MSShapeGroup"></path>
                <path d="M44.2659252,19.5434243 L45.6735321,14.0475656 C45.804778,13.5362548 45.4310715,13.0489836 44.9478196,13.0335147 C43.4486118,12.976865 41.8515434,12.9923339 40.8105486,13.0776221 C39.081817,13.2139158 36.574791,13.4963283 35.2158014,13.7193735 C34.0358403,13.912526 30.517449,15.0885825 29.4785408,15.7019045 C28.0187693,16.5426616 27.8985823,17.464317 28.0494421,18.0765938 C28.3471971,19.2863057 30.2430637,20.181204 31.2085243,20.1258085 C33.9734516,19.9667294 38.8266282,19.932865 42.1374048,20.0559893 C42.5399061,20.0760571 42.9751667,20.107413 43.4394308,20.1456672 C43.8171018,20.181204 44.1680646,19.9284752 44.2659252,19.5434243" id="Fill-15" fill="#0FA24B" sketch:type="MSShapeGroup"></path>
                <path d="M60.9053753,23.4885809 C61.475429,22.0213324 61.8558125,19.1384679 59.2692879,17.7069651 C58.8776368,17.4868465 58.3849952,17.1787222 57.9163493,16.8804228 C57.3934524,16.5507674 56.9070705,16.236999 56.5271043,16.046773 C55.8099467,15.6562872 54.0634792,14.8266092 52.6379277,14.1762872 C51.899487,13.84266 50.7804541,13.287242 49.586513,13.0202985 C49.2265779,12.9379369 48.8729026,13.1112307 48.7084801,13.4490386 C48.7084801,13.4490386 46.2396385,18.7805922 46.075216,19.12279 C45.8755303,19.5460951 46.0795978,20.1353776 46.6141796,20.2618465 C48.4399372,20.6849425 51.0106039,21.4519086 52.9108524,22.6434341 C55.0343649,23.9771064 56.6952827,25.4625414 57.8639762,28.3640103 C58.1439952,29.0626205 59.1034047,28.9988634 59.3283381,28.3113324 C59.6421597,27.3499595 60.7628619,23.8562815 60.9053753,23.4885809" id="Fill-16" fill="#7A4489" sketch:type="MSShapeGroup"></path>
                <path d="M37.2738641,26.3490617 C35.7245784,27.2349713 35.8424702,29.4620787 36.3071515,31.0298753 C36.8920199,33.0025815 38.0749022,34.432621 39.6456797,35.5800391 C40.1001368,35.9138753 41.486252,37.0876323 42.4076857,37.6158753 C43.0307386,37.97396 43.6581732,37.4910787 43.839497,37.3746436 C45.6101689,36.2445758 46.8879905,35.7138244 48.2736883,33.7482256 C49.2101455,32.4172708 49.9882312,30.3567679 49.4482243,28.4296323 C49.0521914,27.0108809 47.0083862,26.1147284 45.7320251,26.2368075 C44.2328173,26.3816719 43.3518632,27.2976832 42.5360104,28.3884516 C41.7854676,26.7525081 39.0820944,25.3149431 37.2738641,26.3490617" id="Fill-17" fill="#DD402A" sketch:type="MSShapeGroup"></path>
                <path d="M55.2682309,64.7430144 C54.9189374,64.984037 54.9854993,65.3051218 55.057695,65.4558393 L57.5186075,70.3440201 C57.6640421,70.6366754 58.0177175,70.6903986 58.2403556,70.5737545 C60.3361166,69.5172686 64.5937833,65.8845794 66.9512014,62.8171331 L67.894753,61.5925794 C69.9517036,58.9172912 71.3726646,55.1677489 72.0420395,50.9359523 C72.1202863,50.4616415 72.2828309,49.7483986 71.9681746,49.2772234 C71.6136646,48.751698 70.1536846,48.0443082 69.717798,48.0047997 C69.4851443,47.9734438 69.2940136,48.0984494 69.195527,48.2999636 L68.1789452,50.3734268 C66.6125495,53.6028788 63.6107954,57.6987997 61.491456,59.4908958 C60.9468586,59.9512009 60.2474369,60.5477997 59.5117088,61.1724099 C57.8219962,62.6068393 55.4937902,64.5837263 55.2682309,64.7430144" id="Fill-18" fill="#79BB44" sketch:type="MSShapeGroup"></path>
                <path d="M103.628263,40.7177288 C101.677728,42.251452 98.9242771,43.2287119 95.8953974,43.2287119 C89.0307576,43.2287119 86,39.1470056 86,33.6661977 C86,28.0819153 89.799245,24 95.6153784,24 C100.912162,24 103.661648,26.9301073 103.837339,31.1535424 L99.5160312,32.1305932 C99.3443056,29.7575763 98.2622052,28.292 95.648555,28.292 C92.7590589,28.292 91.0169732,30.5257966 91.0169732,33.5267684 C91.0169732,36.4602203 92.6194667,38.9371299 96.4865255,38.9371299 C98.299555,38.9371299 100.424528,37.9598701 101.750132,36.9117458 L103.628263,40.7177288" id="Fill-19" fill="#465C9A" sketch:type="MSShapeGroup"></path>
                <path d="M116.753719,38.7634181 C119.820574,38.7634181 121.874603,36.5283672 121.874603,33.6661977 C121.874603,30.7348362 119.820574,28.4667571 116.753719,28.4667571 C113.759059,28.4667571 111.702108,30.7348362 111.702108,33.6661977 C111.702108,36.5283672 113.759059,38.7634181 116.753719,38.7634181 M116.753719,24 C122.468444,24 126.579424,28.117452 126.579424,33.6661977 C126.579424,39.1470056 122.468444,43.2287119 116.753719,43.2287119 C111.11098,43.2287119 107,39.1470056 107,33.6661977 C107,28.117452 111.11098,24 116.753719,24" id="Fill-20" fill="#465C9A" sketch:type="MSShapeGroup"></path>
                <path d="M131.309942,30.967452 C131.309942,29.8867175 131.063726,29.1184972 130.056951,29.1184972 C129.322474,29.1184972 128.487634,29.4678023 128.208241,29.641096 L128,25.8022938 C128.243921,25.5579266 130.056951,25 131.970553,25 C134.061515,25 135.418418,25.8378305 135.944028,27.7566045 C136.813088,26.046661 138.137023,25 140.507378,25 C142.212532,25 143.535632,25.6277458 143.780388,26.046661 L143.084513,30.4450621 C142.80679,30.0614746 141.411702,29.5020847 139.740352,29.5020847 C137.405677,29.5020847 136.498432,31.5272599 136.185236,33.6559096 L136.185236,43.5666836 L131.309942,43.5666836 L131.309942,30.967452" id="Fill-21" fill="#465C9A" sketch:type="MSShapeGroup"></path>
                <path d="M155.931704,38.8700904 C157.564453,38.8700904 159.167572,38.0665424 160.005752,37.2282938 L160.005752,30.1451977 C159.064495,29.2036836 157.531902,28.4693277 155.931704,28.4693277 C152.93454,28.4693277 150.945821,30.5287853 150.945821,33.6361582 C150.945821,36.7765593 152.898025,38.8700904 155.931704,38.8700904 M164.882089,18 L164.882089,37.1601469 C164.882089,38.2425537 165.123089,39.0093107 166.135498,39.0093107 C166.693658,39.0093107 167.286455,38.7651525 167.949571,38.4499209 L168.190779,42.3240508 C167.320467,42.7444294 165.71839,43.1278079 164.184754,43.1278079 C162.268022,43.1278079 160.944295,42.4289887 160.351498,40.7903277 C159.167572,42.2186949 157.252718,43.1278079 154.533695,43.1278079 C149.484589,43.1278079 146,39.1514576 146,33.6361582 C146,28.1214859 149.484589,24.2118192 154.533695,24.2118192 C156.868578,24.2118192 158.71541,24.9447119 160.005752,26.0624463 L160.005752,18 L164.882089,18" id="Fill-22" fill="#465C9A" sketch:type="MSShapeGroup"></path>
                <path d="M183.969028,30.8978418 C183.132309,30.0261469 181.53065,29.2575085 179.892059,29.2575085 C176.861093,29.2575085 174.944569,31.3522938 174.944569,34.4926949 C174.944569,37.5647401 176.895104,39.6582712 179.892059,39.6582712 C181.493926,39.6582712 182.993552,38.9255876 183.969028,38.0196102 L183.969028,30.8978418 L183.969028,30.8978418 Z M188.843905,37.9483277 C188.843905,38.996661 189.123298,39.7974915 190.100026,39.7974915 C190.796109,39.7974915 191.351765,39.5533333 191.944563,39.2410282 L192.154055,43.1151582 C191.248062,43.5326102 189.748437,43.9159887 188.182042,43.9159887 C186.126552,43.9159887 184.839132,43.0779492 184.314774,41.2632768 C183.061574,42.7288531 181.041347,43.8819153 178.533904,43.8819153 C173.444735,43.8819153 170,39.9735028 170,34.4926949 C170,28.9439492 173.444735,25 178.533904,25 C180.901129,25 182.747126,25.6630734 183.969028,26.8844915 L183.969028,25.3152316 L188.843905,25.3152316 L188.843905,37.9483277 L188.843905,37.9483277 Z" id="Fill-23" fill="#465C9A" sketch:type="MSShapeGroup"></path>
                <path d="M207.97028,30.8978418 C207.132935,30.0261469 205.532528,29.2575085 203.896441,29.2575085 C200.864223,29.2575085 198.94749,31.3522938 198.94749,34.4926949 C198.94749,37.5647401 200.898234,39.6582712 203.896441,39.6582712 C205.499769,39.6582712 206.995012,38.9255876 207.97028,38.0196102 L207.97028,30.8978418 L207.97028,30.8978418 Z M212.847243,37.9483277 C212.847243,38.996661 213.12601,39.7974915 214.101695,39.7974915 C214.799239,39.7974915 215.354478,39.5533333 215.948527,39.2410282 L216.156977,43.1151582 C215.252653,43.5326102 213.75428,43.9159887 212.186423,43.9159887 C210.129473,43.9159887 208.842053,43.0779492 208.319156,41.2632768 C207.064704,42.7288531 205.044686,43.8819153 202.536825,43.8819153 C197.450577,43.8819153 194,39.9735028 194,34.4926949 C194,28.9439492 197.450577,25 202.536825,25 C204.904259,25 206.752552,25.6630734 207.97028,26.8844915 L207.97028,25.3152316 L212.847243,25.3152316 L212.847243,37.9483277 L212.847243,37.9483277 Z" id="Fill-24" fill="#465C9A" sketch:type="MSShapeGroup"></path>
                <path d="M224.875294,25.3152316 L224.875294,27.5490282 C226.166679,26.046661 228.186906,25 230.730029,25 C235.431929,25 237.487419,28.5588983 237.487419,33.0622373 L237.487419,37.9483277 C237.487419,38.996661 237.76556,39.7974915 238.740619,39.7974915 C239.336338,39.7974915 239.995697,39.5533333 240.586199,39.2381017 L240.79903,43.1122316 C239.891785,43.5694011 238.429301,43.9159887 236.827016,43.9159887 C234.109663,43.9159887 232.609621,42.5214859 232.609621,39.1015989 L232.609621,33.8659944 C232.609621,31.1764915 231.355377,29.503339 228.916791,29.503339 C226.864223,29.503339 225.432411,31.2488192 224.875294,32.7129322 L224.875294,43.5694011 L220,43.5694011 L220,25.3152316 L224.875294,25.3152316" id="Fill-25" fill="#465C9A" sketch:type="MSShapeGroup"></path>
            </g>
        </g>
    </g>
</svg>