<?xml version="1.0" encoding="utf-8"?>
<!-- Generator: Adobe Illustrator 27.7.0, SVG Export Plug-In . SVG Version: 6.00 Build 0)  -->
<svg version="1.1" id="Laag_1" xmlns="http://www.w3.org/2000/svg" xmlns:xlink="http://www.w3.org/1999/xlink" x="0px" y="0px"
	 viewBox="0 0 216.4 165.2" style="enable-background:new 0 0 216.4 165.2;" xml:space="preserve">
<style type="text/css">
	.st0{fill:#F98A3C;}
</style>
<g id="Laag_2_00000135687364958490323070000012008331354605005195_">
	<g id="BEELDMERK">
		<g id="Hersenen">
			<path class="st0" d="M144.8,12.2L127.5,26c1.9,1,3.7,2.2,5.5,3.4L144.8,12.2z"/>
			<path class="st0" d="M92.8,0l2.3,22.8c2.3-0.7,4.6-1.2,6.9-1.5L92.8,0z"/>
			<path class="st0" d="M160.4,33.9l-18.9,4c1.1,1.4,2.1,2.9,3.1,4.5L160.4,33.9z"/>
			<path class="st0" d="M120.3,0l-9.1,21.2c2.3,0.2,4.6,0.6,6.9,1.2L120.3,0z"/>
			<path class="st0" d="M52.7,33.9L69.8,43c1-1.7,2-3.3,3.2-4.9L52.7,33.9z"/>
			<path class="st0" d="M68.4,12.2l12.3,18.1c1.7-1.4,3.6-2.6,5.5-3.7L68.4,12.2z"/>
			<rect x="99.1" y="126.6" class="st0" width="23.4" height="10"/>
			<path class="st0" d="M118.3,77.2h-8.1c-1,0-1,1.2-0.2,1.4c1.5,0.5,2.9,1.3,2.9,2.7c0,0.9-1.7,2.9-5.3,2.9c-3.8,0-5.9-1.5-5.9-3
				c0-1.2,1.3-2.3,2.9-2.6c1-0.2,1-1.4-0.2-1.4h-8.8c-0.9,0-1.6-0.7-1.7-1.6v-5.3c0,0,0.2-0.2,0.2,0c0.5,0.7,1.2,1.2,2.1,1.2
				c1.7,0,3.1-2,3.1-4.6s-1.4-4.6-3.1-4.6c-0.8,0-1.6,0.5-2.1,1.2c-0.1,0.1-0.3-0.1-0.3-0.1v-6c0-0.9,0.7-1.6,1.6-1.6c0,0,0,0,0,0
				h8.5c0,0,0.2,0.2,0.1,0.2c-0.9,0.4-1.4,1.3-1.5,2.3c0,1.7,2,3.1,4.6,3.1s4.6-1.4,4.6-3.1c-0.1-1-0.6-1.8-1.5-2.3
				c-0.2-0.1,0.1-0.3,0.1-0.3h7.8c0.9,0,1.7,0.6,1.7,1.5c0,0,0,0.1,0,0.1v18.1C120,76.5,119.3,77.2,118.3,77.2
				C118.4,77.2,118.4,77.2,118.3,77.2z"/>
			<path class="st0" d="M106.2,31C90.6,31,74.7,39.6,72,60.3l6.3,2L65.1,77.4h19.5V63.7c1.7-11.8,12.4-17,21-17
				c9.3,0,21,0.4,23.3,17c1.9,13.6-1.6,21.1-10.6,24.1c-8.7,2.9-7.7,7.9-7.2,22.3h-12v10.2h12.1l0,0h11.4
				c0.3-12.8-1.1-18.7,4.9-23.9c10.4-9.1,17.2-5,17.2-29.7C145,40,123.7,31,106.2,31z"/>
			<path class="st0" d="M9.3,152.9v-3.1h8.1v7.4c-1,0.9-2.2,1.6-3.4,2c-1.4,0.6-3,0.9-4.5,0.9c-1.8,0-3.5-0.4-5.1-1.2
				c-1.4-0.8-2.6-2-3.3-3.5c-0.7-1.6-1.1-3.3-1.1-5c0-1.8,0.4-3.6,1.2-5.2c0.8-1.5,2-2.7,3.6-3.5c1.4-0.7,2.9-1,4.4-0.9
				c1.9-0.1,3.8,0.4,5.4,1.5c1.3,1,2.2,2.4,2.5,4l-3.7,0.7c-0.2-0.8-0.7-1.6-1.4-2.1c-0.8-0.6-1.7-0.8-2.7-0.8
				c-1.5-0.1-2.9,0.5-3.9,1.6c-1.1,1.3-1.6,3-1.5,4.6c-0.1,1.8,0.4,3.6,1.5,5c1,1.1,2.4,1.7,3.9,1.7c0.8,0,1.6-0.2,2.4-0.5
				c0.7-0.3,1.4-0.7,2-1.1v-2.4L9.3,152.9z"/>
			<path class="st0" d="M28.6,155.5l3.6,0.6c-0.4,1.2-1.2,2.2-2.2,2.9c-1.1,0.7-2.4,1.1-3.7,1c-2,0.2-4-0.7-5.2-2.3
				c-0.9-1.4-1.4-3-1.3-4.6c-0.1-1.9,0.5-3.8,1.8-5.2c1.2-1.2,2.8-1.9,4.5-1.8c1.8-0.1,3.5,0.7,4.8,2c1.2,1.3,1.7,3.4,1.7,6.1h-9
				c0,0.9,0.3,1.8,0.9,2.5c0.5,0.6,1.3,0.9,2.1,0.9c0.5,0,1-0.1,1.4-0.5C28.2,156.6,28.5,156,28.6,155.5z M28.9,151.9
				c0-0.9-0.2-1.7-0.8-2.4c-0.5-0.5-1.1-0.8-1.9-0.8c-0.7,0-1.4,0.3-1.9,0.9c-0.5,0.6-0.8,1.5-0.8,2.3L28.9,151.9z"/>
			<path class="st0" d="M38.5,141.1v6.9c1.5-1.9,4.1-2.5,6.3-1.6c0.6,0.3,1.1,0.7,1.5,1.2c0.3,0.5,0.6,1,0.7,1.6
				c0.1,0.9,0.2,1.8,0.2,2.7v7.9h-3.6v-7.1c0-0.9,0-1.8-0.2-2.7c-0.1-0.4-0.4-0.7-0.7-0.9c-0.4-0.2-0.8-0.4-1.3-0.3
				c-0.6,0-1.1,0.1-1.6,0.4c-0.5,0.3-0.8,0.8-1,1.3c-0.3,0.8-0.4,1.7-0.3,2.6v6.8H35v-18.6H38.5z"/>
			<path class="st0" d="M58.5,155.5l3.6,0.6c-0.4,1.2-1.1,2.3-2.2,3c-1.1,0.7-2.4,1.1-3.7,1c-2,0.2-4-0.7-5.2-2.3
				c-0.9-1.4-1.4-3-1.3-4.6c-0.1-1.9,0.5-3.8,1.8-5.2c1.1-1.2,2.7-1.9,4.4-1.9c1.8-0.1,3.5,0.7,4.7,2c1.2,1.3,1.7,3.4,1.7,6.1h-8.9
				c0,0.9,0.3,1.8,0.9,2.5c0.5,0.6,1.3,0.9,2.1,0.9c0.5,0,1-0.1,1.4-0.5C58.1,156.6,58.4,156,58.5,155.5z M58.7,151.9
				c0-0.9-0.3-1.7-0.8-2.4c-0.5-0.5-1.2-0.8-1.9-0.8c-0.7,0-1.4,0.3-1.9,0.9c-0.5,0.6-0.8,1.5-0.8,2.3L58.7,151.9z"/>
			<path class="st0" d="M73.7,159.8v-2c-0.5,0.7-1.2,1.3-1.9,1.7c-0.8,0.4-1.6,0.6-2.5,0.6c-0.9,0-1.7-0.2-2.4-0.6
				c-0.7-0.4-1.2-1-1.6-1.7c-0.4-1-0.5-2-0.5-3v-8.5h3.6v6.2c-0.1,1.2,0,2.3,0.2,3.5c0.1,0.4,0.4,0.8,0.7,1c0.4,0.3,0.9,0.4,1.3,0.4
				c0.6,0,1.2-0.2,1.6-0.5c0.5-0.3,0.8-0.7,1-1.2c0.2-1.2,0.3-2.4,0.3-3.6v-5.7h3.6v13.5L73.7,159.8z"/>
			<path class="st0" d="M80.2,160.6l4.1,0.5c0,0.4,0.2,0.7,0.5,1c0.5,0.3,1,0.4,1.6,0.4c0.7,0,1.4-0.1,2.1-0.4
				c0.3-0.2,0.6-0.5,0.7-0.9c0.1-0.5,0.2-1.1,0.2-1.6v-2c-0.9,1.4-2.4,2.2-4,2.2c-1.7,0-3.4-0.8-4.3-2.3c-0.9-1.3-1.3-2.9-1.2-4.5
				c-0.1-1.9,0.5-3.7,1.6-5.2c1-1.1,2.5-1.8,4-1.8c1.7,0,3.2,0.8,4.1,2.2v-1.9h3.3v12.1c0,1.2-0.1,2.4-0.4,3.6
				c-0.2,0.7-0.6,1.3-1.1,1.9c-0.5,0.5-1.2,0.8-1.9,1.1c-1,0.3-2,0.4-3,0.4c-2.3,0-3.9-0.4-4.9-1.2c-0.9-0.7-1.5-1.8-1.4-3
				C80.2,161,80.2,160.8,80.2,160.6z M83.4,152.7c-0.1,1.1,0.2,2.2,0.8,3.1c0.5,0.6,1.2,1,2,1c0.8,0,1.7-0.4,2.2-1
				c0.7-0.9,1-1.9,0.9-3c0.1-1.1-0.2-2.2-0.9-3.1c-0.5-0.7-1.3-1-2.2-1c-0.8,0-1.6,0.4-2.1,1C83.5,150.6,83.3,151.7,83.4,152.7z"/>
			<path class="st0" d="M104.1,155.5l3.6,0.6c-0.4,1.2-1.1,2.3-2.2,3c-1.1,0.7-2.4,1.1-3.7,1c-2,0.2-4-0.7-5.2-2.3
				c-0.9-1.4-1.4-3-1.3-4.6c-0.1-1.9,0.5-3.8,1.7-5.3c1.1-1.2,2.7-1.9,4.4-1.9c1.8-0.1,3.5,0.7,4.8,2c1.2,1.3,1.7,3.4,1.7,6.1h-8.9
				c0,0.9,0.3,1.8,0.9,2.5c0.5,0.6,1.2,0.9,2,0.9c0.5,0,1-0.1,1.4-0.5C103.7,156.6,104,156,104.1,155.5z M104.3,151.9
				c0-0.9-0.2-1.7-0.8-2.4c-0.5-0.5-1.1-0.8-1.8-0.8c-0.7,0-1.4,0.3-1.9,0.9c-0.5,0.6-0.8,1.5-0.8,2.3L104.3,151.9z"/>
			<path class="st0" d="M122.8,159.8h-3.6v-6.9c0.1-0.9,0-1.9-0.2-2.8c-0.1-0.4-0.4-0.8-0.8-1c-0.4-0.2-0.8-0.4-1.2-0.4
				c-0.6,0-1.2,0.2-1.7,0.5c-0.5,0.3-0.8,0.8-1,1.4c-0.2,1-0.3,2.1-0.3,3.1v6.1h-3.6v-13.5h3.3v2c1.5-2.1,4.2-2.9,6.6-1.9
				c0.6,0.2,1.1,0.6,1.5,1.1c0.3,0.4,0.6,1,0.7,1.5c0.1,0.8,0.2,1.6,0.2,2.4L122.8,159.8z"/>
			<path class="st0" d="M129.8,159.8l-6.7-18.6h4.1l4.7,13.8l4.6-13.8h4l-6.7,18.6H129.8z"/>
			<path class="st0" d="M148.8,155.5l3.6,0.6c-0.4,1.2-1.1,2.3-2.2,3c-1.1,0.7-2.4,1.1-3.7,1c-2,0.2-4-0.7-5.2-2.3
				c-0.9-1.4-1.4-3-1.3-4.6c-0.1-1.9,0.5-3.8,1.8-5.2c1.1-1.2,2.7-1.9,4.4-1.9c1.8-0.1,3.5,0.7,4.7,2c1.2,1.3,1.7,3.4,1.7,6.1h-8.9
				c0,0.9,0.3,1.8,0.9,2.5c0.5,0.6,1.3,0.9,2.1,0.9c0.5,0,1-0.1,1.4-0.5C148.4,156.6,148.7,156,148.8,155.5z M149,151.9
				c0-0.9-0.3-1.7-0.8-2.4c-0.5-0.5-1.2-0.8-1.9-0.8c-0.7,0-1.4,0.3-1.9,0.9c-0.5,0.7-0.8,1.5-0.8,2.3L149,151.9z"/>
			<path class="st0" d="M167.4,159.8h-3.6v-6.9c0-0.9,0-1.9-0.2-2.8c-0.1-0.4-0.4-0.8-0.7-1c-0.4-0.2-0.8-0.4-1.2-0.4
				c-0.6,0-1.2,0.2-1.7,0.5c-0.5,0.3-0.8,0.8-1,1.4c-0.2,1-0.3,2.1-0.3,3.1v6.1h-3.6v-13.5h3.3v2c1.5-2.1,4.2-2.9,6.6-1.9
				c0.6,0.2,1.1,0.6,1.5,1.1c0.3,0.4,0.6,0.9,0.7,1.5c0.2,0.8,0.2,1.6,0.2,2.4L167.4,159.8z"/>
			<path class="st0" d="M169.6,155.9l3.6-0.5c0.1,0.6,0.4,1.2,0.9,1.6c0.6,0.4,1.3,0.6,1.9,0.5c0.7,0.1,1.5-0.1,2.1-0.5
				c0.3-0.2,0.5-0.6,0.5-0.9c0-0.2-0.1-0.5-0.2-0.7c-0.4-0.2-0.8-0.4-1.2-0.5c-1.9-0.3-3.7-0.9-5.5-1.7c-1-0.7-1.6-1.8-1.6-3
				c0-1.1,0.5-2.2,1.4-2.9c1.2-0.9,2.8-1.3,4.3-1.2c1.4-0.1,2.9,0.2,4.1,0.9c0.9,0.6,1.6,1.6,1.9,2.7l-3.4,0.6
				c-0.1-0.5-0.4-0.9-0.8-1.2c-0.5-0.3-1.1-0.5-1.7-0.4c-0.7,0-1.4,0.1-2,0.4c-0.3,0.2-0.4,0.4-0.4,0.7c0,0.3,0.1,0.5,0.4,0.6
				c1.1,0.5,2.2,0.8,3.3,1c1.4,0.2,2.8,0.8,4,1.6c0.8,0.7,1.2,1.7,1.1,2.7c0,1.2-0.6,2.4-1.6,3.2c-1.3,1-2.9,1.5-4.6,1.3
				c-1.5,0.1-3.1-0.3-4.4-1.1C170.6,158.2,169.9,157.2,169.6,155.9z"/>
			<path class="st0" d="M191.2,146.3v2.8h-2.4v5.4c0,0.6,0,1.3,0.1,1.9c0,0.2,0.2,0.3,0.3,0.4c0.2,0.1,0.4,0.2,0.6,0.2
				c0.5,0,1-0.2,1.4-0.3l0.3,2.8c-0.9,0.4-1.9,0.6-2.8,0.5c-0.6,0-1.2-0.1-1.7-0.3c-0.5-0.2-0.8-0.4-1.1-0.8
				c-0.3-0.4-0.4-0.9-0.5-1.4c-0.1-0.8-0.1-1.7-0.1-2.5v-5.9h-1.6v-2.8h1.6v-2.7l3.6-2.1v4.8L191.2,146.3z"/>
			<path class="st0" d="M201.4,155.5l3.6,0.6c-0.4,1.2-1.1,2.3-2.2,3c-1.1,0.7-2.4,1.1-3.7,1c-2,0.2-4-0.7-5.2-2.3
				c-0.9-1.4-1.4-3-1.3-4.6c-0.1-1.9,0.5-3.8,1.8-5.2c1.1-1.2,2.7-1.9,4.4-1.9c1.8-0.1,3.5,0.7,4.8,2c1.2,1.3,1.7,3.4,1.7,6.1h-8.9
				c0,0.9,0.3,1.8,0.9,2.5c0.5,0.6,1.3,0.9,2.1,0.9c0.5,0,1-0.1,1.4-0.5C200.9,156.5,201.2,156,201.4,155.5z M201.6,151.9
				c0-0.9-0.2-1.7-0.8-2.4c-0.5-0.5-1.1-0.8-1.9-0.8c-0.7,0-1.4,0.3-1.9,0.9c-0.5,0.6-0.8,1.5-0.8,2.3L201.6,151.9z"/>
			<path class="st0" d="M211.2,159.8h-3.6v-13.5h3.3v1.9c0.4-0.7,0.9-1.3,1.5-1.8c0.5-0.3,1-0.4,1.5-0.4c0.8,0,1.6,0.2,2.4,0.7
				l-1.1,3.1c-0.5-0.4-1.1-0.6-1.7-0.6c-0.5,0-0.9,0.1-1.3,0.4c-0.4,0.4-0.7,0.9-0.8,1.5c-0.3,1.5-0.4,3-0.3,4.5L211.2,159.8z"/>
		</g>
	</g>
</g>
</svg>
